<?xml version="1.0" encoding="UTF-8"?>
<svg width="24px" height="25px" viewBox="0 0 24 25" version="1.1" xmlns="http://www.w3.org/2000/svg" xmlns:xlink="http://www.w3.org/1999/xlink">
    <title>icon/rounded/navigation/expand_more_24px_outlined</title>
    <defs>
        <filter color-interpolation-filters="auto" id="filter-1">
            <feColorMatrix in="SourceGraphic" type="matrix" values="0 0 0 0 0.250980 0 0 0 0 0.384314 0 0 0 0 0.419608 0 0 0 1.000000 0"></feColorMatrix>
        </filter>
    </defs>
    <g id="Page-1" stroke="none" stroke-width="1" fill="none" fill-rule="evenodd" opacity="0.3">
        <g id="Register" transform="translate(-743.000000, -1022.000000)">
            <g id="Form" transform="translate(402.000000, 32.000000)">
                <g id="Group-2" transform="translate(16.000000, 781.000000)">
                    <g id="icon/rounded/navigation/expand_more_24px" transform="translate(309.000000, 168.000000)" filter="url(#filter-1)">
                        <g transform="translate(16.000000, 41.000000)">
                            <path d="M16,6 L16,17.5 C16,19.71 14.21,21.5 12,21.5 C9.79,21.5 8,19.71 8,17.5 L8,5 C8,3.62 9.12,2.5 10.5,2.5 C11.88,2.5 13,3.62 13,5 L13,15.5 C13,16.05 12.55,16.5 12,16.5 C11.45,16.5 11,16.05 11,15.5 L11,6 L9.5,6 L9.5,15.5 C9.5,16.88 10.62,18 12,18 C13.38,18 14.5,16.88 14.5,15.5 L14.5,5 C14.5,2.79 12.71,1 10.5,1 C8.29,1 6.5,2.79 6.5,5 L6.5,17.5 C6.5,20.54 8.96,23 12,23 C15.04,23 17.5,20.54 17.5,17.5 L17.5,6 L16,6 Z" id="icon/editor/attach_file_24px" fill="#000000"></path>
                        </g>
                    </g>
                </g>
            </g>
        </g>
    </g>
</svg>