<?xml version="1.0" encoding="UTF-8"?>
<svg width="24px" height="24px" viewBox="0 0 24 24" version="1.1" xmlns="http://www.w3.org/2000/svg" xmlns:xlink="http://www.w3.org/1999/xlink">
    <title>ICON_outlined</title>
    <defs>
        <filter color-interpolation-filters="auto" id="filter-1">
            <feColorMatrix in="SourceGraphic" type="matrix" values="0 0 0 0 0.250980 0 0 0 0 0.384314 0 0 0 0 0.419608 0 0 0 1.000000 0"></feColorMatrix>
        </filter>
    </defs>
    <g id="Page-1" stroke="none" stroke-width="1" fill="none" fill-rule="evenodd">
        <g id="Landing-Page-#--Loign" transform="translate(-291.000000, -134.000000)">
            <g id="ROW-TYPE-4" transform="translate(151.000000, 80.000000)" filter="url(#filter-1)">
                <g transform="translate(0.000000, 50.000000)">
                    <g id="ICON" transform="translate(140.000000, 4.000000)" fill="#000000">
                        <path d="M14.05875,9.02 L14.97875,9.94 L5.91875,19 L4.99875,19 L4.99875,18.08 L14.05875,9.02 L14.05875,9.02 Z M17.65875,3 C17.40875,3 17.14875,3.1 16.95875,3.29 L15.12875,5.12 L18.87875,8.87 L20.70875,7.04 C21.09875,6.65 21.09875,6.02 20.70875,5.63 L18.36875,3.29 C18.16875,3.09 17.91875,3 17.65875,3 Z M14.05875,6.19 L2.99875,17.25 L2.99875,21 L6.74875,21 L17.80875,9.94 L14.05875,6.19 Z" id="icon/image/edit_24px"></path>
                    </g>
                </g>
            </g>
        </g>
    </g>
</svg>