<?xml version="1.0" encoding="UTF-8"?>
<svg width="24px" height="24px" viewBox="0 0 24 24" version="1.1" xmlns="http://www.w3.org/2000/svg" xmlns:xlink="http://www.w3.org/1999/xlink">
    <title>icon/rounded/navigation/arrow_back_24px copy</title>
    <defs>
        <filter color-interpolation-filters="auto" id="filter-1">
            <feColorMatrix in="SourceGraphic" type="matrix" values="0 0 0 0 1.000000 0 0 0 0 1.000000 0 0 0 0 1.000000 0 0 0 1.000000 0"></feColorMatrix>
        </filter>
    </defs>
    <g id="Page-1" stroke="none" stroke-width="1" fill="none" fill-rule="evenodd">
        <g id="Landing-Page-#1" transform="translate(-1233.000000, -2757.000000)">
            <g id="Group-4-Copy-9" transform="translate(0.000000, 2093.000000)">
                <g id="Group-9" transform="translate(164.000000, 32.000000)">
                    <g id="icon/rounded/navigation/arrow_back_24px-copy" transform="translate(904.000000, 626.000000)" filter="url(#filter-1)">
                        <g transform="translate(177.000000, 18.000000) scale(1, -1) rotate(-180.000000) translate(-177.000000, -18.000000) translate(165.000000, 6.000000)">
                            <path d="M18.79125,11.0049928 L7.62125,11.0049928 L12.50125,6.1249928 C12.89125,5.7349928 12.89125,5.0949928 12.50125,4.7049928 C12.3144185,4.51774013 12.0607676,4.4125072 11.79625,4.4125072 C11.5317324,4.4125072 11.2780815,4.51774013 11.09125,4.7049928 L4.50125,11.2949928 C4.11125,11.6849928 4.11125,12.3149928 4.50125,12.7049928 L11.09125,19.2949928 C11.48125,19.6849928 12.11125,19.6849928 12.50125,19.2949928 C12.89125,18.9049928 12.89125,18.2749928 12.50125,17.8849928 L7.62125,13.0049928 L18.79125,13.0049928 C19.34125,13.0049928 19.79125,12.5549928 19.79125,12.0049928 C19.79125,11.4549928 19.34125,11.0049928 18.79125,11.0049928 Z" id="icon/navigation/arrow_back_24px" fill="#000000"></path>
                        </g>
                    </g>
                </g>
            </g>
        </g>
    </g>
</svg>