<?xml version="1.0" encoding="UTF-8"?>
<svg width="34px" height="34px" viewBox="0 0 34 34" version="1.1" xmlns="http://www.w3.org/2000/svg" xmlns:xlink="http://www.w3.org/1999/xlink">
    <title>vuesax/broken/clipboard-tick</title>
    <defs>
        <filter color-interpolation-filters="auto" id="filter-1">
            <feColorMatrix in="SourceGraphic" type="matrix" values="0 0 0 0 1.000000 0 0 0 0 1.000000 0 0 0 0 1.000000 0 0 0 1.000000 0"></feColorMatrix>
        </filter>
    </defs>
    <g id="Page-1" stroke="none" stroke-width="1" fill="none" fill-rule="evenodd">
        <g id="Landing-Page-#1" transform="translate(-1196.000000, -2962.000000)">
            <g id="Group-4-Copy-8" transform="translate(0.000000, 2819.000000)">
                <g id="Group-2" transform="translate(798.000000, 130.000000)">
                    <g id="vuesax/broken/clipboard-tick" transform="translate(385.000000, 0.000000)" filter="url(#filter-1)">
                        <g transform="translate(13.000000, 13.000000)" id="clipboard-tick">
                            <path d="M13.1899414,20.8249308 L15.3149414,22.9499322 L20.9816081,17.2832642" id="Vector" stroke="#292D32" stroke-width="1.5" stroke-linecap="round" stroke-linejoin="round" stroke-dasharray="0,0" fill-rule="nonzero"></path>
                            <path d="M15.5266667,2.83333333 L14.1666667,2.83333333 C12.75,2.83333333 11.3333333,2.83333333 11.3333333,5.66666667 C11.3333333,8.5 12.75,8.5 14.1666667,8.5 L19.8333333,8.5 C22.6666667,8.5 22.6666667,7.08333333 22.6666667,5.66666667 C22.6666667,2.83333333 21.25,2.83333333 19.8333333,2.83333333" id="Vector" stroke="#292D32" stroke-width="1.5" stroke-linecap="round" stroke-linejoin="round" stroke-dasharray="0,0" fill-rule="nonzero"></path>
                            <path d="M4.25,14.1666944 C4.25,7.70669444 6.61583344,5.95002768 11.3333333,5.69502767" id="Vector" stroke="#292D32" stroke-width="1.5" stroke-linecap="round" stroke-linejoin="round" stroke-dasharray="0,0" fill-rule="nonzero"></path>
                            <path d="M22.6666667,5.69502767 C27.3841666,5.95002768 29.75,7.69252745 29.75,14.1666944 L29.75,22.6666937 C29.75,28.3333604 28.3333333,31.1666937 21.25,31.1666937 L12.75,31.1666937 C5.66666667,31.1666937 4.25,28.3333604 4.25,22.6666937 L4.25,19.7058601" id="Vector" stroke="#292D32" stroke-width="1.5" stroke-linecap="round" stroke-linejoin="round" stroke-dasharray="0,0" fill-rule="nonzero"></path>
                            <path d="M34,0 L34,34 L0,34 L0,0 L34,0 Z" id="Vector" opacity="0"></path>
                        </g>
                    </g>
                </g>
            </g>
        </g>
    </g>
</svg>