<?xml version="1.0" encoding="UTF-8"?>
<svg width="24px" height="25px" viewBox="0 0 24 25" version="1.1" xmlns="http://www.w3.org/2000/svg" xmlns:xlink="http://www.w3.org/1999/xlink">
    <title>ICON_outlined</title>
    <defs>
        <filter color-interpolation-filters="auto" id="filter-1">
            <feColorMatrix in="SourceGraphic" type="matrix" values="0 0 0 0 0.925490 0 0 0 0 0.035294 0 0 0 0 0.184314 0 0 0 1.000000 0"></feColorMatrix>
        </filter>
    </defs>
    <g id="Page-1" stroke="none" stroke-width="1" fill="none" fill-rule="evenodd">
        <g id="Landing-Page-#--Loign" transform="translate(-291.000000, -228.000000)">
            <g id="Menu-/-Dropdown-/-Small" transform="translate(151.000000, 80.000000)">
                <g id="ICON" transform="translate(0.000000, 145.000000)" filter="url(#filter-1)">
                    <g transform="translate(140.000000, 3.917098)">
                        <path d="M17,8 L15.59,9.41 L17.17,11 L9,11 L9,13 L17.17,13 L15.59,14.58 L17,16 L21,12 L17,8 Z M5,5 L12,5 L12,3 L5,3 C3.9,3 3,3.9 3,5 L3,19 C3,20.1 3.9,21 5,21 L12,21 L12,19 L5,19 L5,5 Z" id="Shape" fill="#000000"></path>
                    </g>
                </g>
            </g>
        </g>
    </g>
</svg>