<?xml version="1.0" encoding="UTF-8"?>
<svg width="24px" height="24px" viewBox="0 0 24 24" version="1.1" xmlns="http://www.w3.org/2000/svg" xmlns:xlink="http://www.w3.org/1999/xlink">
    <title>ICON_rounded</title>
    <defs>
        <filter color-interpolation-filters="auto" id="filter-1">
            <feColorMatrix in="SourceGraphic" type="matrix" values="0 0 0 0 0.250980 0 0 0 0 0.384314 0 0 0 0 0.419608 0 0 0 1.000000 0"></feColorMatrix>
        </filter>
    </defs>
    <g id="Page-1" stroke="none" stroke-width="1" fill="none" fill-rule="evenodd">
        <g id="Landing-Page-#--Loign" transform="translate(-291.000000, -176.000000)">
            <g id="ROW-TYPE-4-Copy" transform="translate(151.000000, 80.000000)" filter="url(#filter-1)">
                <g transform="translate(0.000000, 92.000000)">
                    <g id="ICON" transform="translate(140.000000, 4.000000)" fill="#000000">
                        <path d="M12,13.5 C10.9,13.5 10,14.4 10,15.5 C10,16.6 10.9,17.5 12,17.5 C13.1,17.5 14,16.6 14,15.5 C14,14.4 13.1,13.5 12,13.5 Z M18,8.5 L17,8.5 L17,6.5 C17,3.74 14.76,1.5 12,1.5 C9.72,1.5 7.73,3.04 7.16,5.25 C7.02,5.79 7.34,6.33 7.88,6.47 C8.41,6.61 8.96,6.29 9.1,5.75 C9.44,4.43 10.63,3.5 12,3.5 C13.65,3.5 15,4.85 15,6.5 L15,8.5 L6,8.5 C4.9,8.5 4,9.4 4,10.5 L4,20.5 C4,21.6 4.9,22.5 6,22.5 L18,22.5 C19.1,22.5 20,21.6 20,20.5 L20,10.5 C20,9.4 19.1,8.5 18,8.5 Z M18,19.5 C18,20.05 17.55,20.5 17,20.5 L7,20.5 C6.45,20.5 6,20.05 6,19.5 L6,11.5 C6,10.95 6.45,10.5 7,10.5 L17,10.5 C17.55,10.5 18,10.95 18,11.5 L18,19.5 Z" id="icon/action/lock_open_24px"></path>
                    </g>
                </g>
            </g>
        </g>
    </g>
</svg>