<?xml version="1.0" encoding="UTF-8"?>
<svg width="24px" height="25px" viewBox="0 0 24 25" version="1.1" xmlns="http://www.w3.org/2000/svg" xmlns:xlink="http://www.w3.org/1999/xlink">
    <title>icon/rounded/navigation/expand_more_24px_rounded</title>
    <defs>
        <filter color-interpolation-filters="auto" id="filter-1">
            <feColorMatrix in="SourceGraphic" type="matrix" values="0 0 0 0 0.250980 0 0 0 0 0.384314 0 0 0 0 0.419608 0 0 0 1.000000 0"></feColorMatrix>
        </filter>
    </defs>
    <g id="Page-1" stroke="none" stroke-width="1" fill="none" fill-rule="evenodd" opacity="0.3">
        <g id="Register" transform="translate(-743.000000, -438.000000)">
            <g id="Form" transform="translate(402.000000, 32.000000)">
                <g id="Group-23-Copy" transform="translate(16.000000, 317.000000)">
                    <g id="icon/rounded/navigation/expand_more_24px" transform="translate(309.000000, 48.000000)" filter="url(#filter-1)">
                        <g transform="translate(16.000000, 41.000000)">
                            <path d="M15.875,8.9999928 L11.995,12.8799928 L8.115,8.9999928 C7.92816847,8.81274013 7.67451764,8.7075072 7.41,8.7075072 C7.14548236,8.7075072 6.89183153,8.81274013 6.705,8.9999928 C6.315,9.3899928 6.315,10.0199928 6.705,10.4099928 L11.295,14.9999928 C11.685,15.3899928 12.315,15.3899928 12.705,14.9999928 L17.295,10.4099928 C17.685,10.0199928 17.685,9.3899928 17.295,8.9999928 C16.905,8.6199928 16.265,8.6099928 15.875,8.9999928 L15.875,8.9999928 Z" id="icon/navigation/expand_more_24px" fill="#000000"></path>
                        </g>
                    </g>
                </g>
            </g>
        </g>
    </g>
</svg>