<?xml version="1.0" encoding="UTF-8"?>
<svg width="24px" height="24px" viewBox="0 0 24 24" version="1.1" xmlns="http://www.w3.org/2000/svg" xmlns:xlink="http://www.w3.org/1999/xlink">
    <title>icon/rounded/navigation/arrow_back_24px copy</title>
    <defs>
        <filter color-interpolation-filters="auto" id="filter-1">
            <feColorMatrix in="SourceGraphic" type="matrix" values="0 0 0 0 1.000000 0 0 0 0 1.000000 0 0 0 0 1.000000 0 0 0 1.000000 0"></feColorMatrix>
        </filter>
    </defs>
    <g id="Page-1" stroke="none" stroke-width="1" fill="none" fill-rule="evenodd">
        <g id="Landing-Page-#1" transform="translate(-273.000000, -38.000000)">
            <g id="icon/rounded/navigation/arrow_back_24px-copy" transform="translate(165.000000, 32.000000)" filter="url(#filter-1)">
                <g transform="translate(120.000000, 18.000000) scale(1, -1) rotate(-180.000000) translate(-120.000000, -18.000000) translate(108.000000, 6.000000)">
                    <path d="M12,12 C14.21,12 16,10.21 16,8 C16,5.79 14.21,4 12,4 C9.79,4 8,5.79 8,8 C8,10.21 9.79,12 12,12 Z M12,14 C9.33,14 4,15.34 4,18 L4,19 C4,19.55 4.45,20 5,20 L19,20 C19.55,20 20,19.55 20,19 L20,18 C20,15.34 14.67,14 12,14 Z" id="icon/social/person_24px" fill="#000000"></path>
                </g>
            </g>
        </g>
    </g>
</svg>